<svg version="1.2" xmlns="http://www.w3.org/2000/svg" viewBox="0 0 25 25" width="25" height="25">
	<title>linkedin (1)-svg</title>
	<style>
		.s0 { fill: #000000 } 
	</style>
	<g id="XMLID_801_">
		<path id="XMLID_802_" class="s0" d="m0.4 8h5.8v17h-5.8z"/>
		<path id="XMLID_803_" class="s0" d="m3.3 6.6c-1.8 0-3.3-1.4-3.3-3.3 0-1.8 1.5-3.3 3.3-3.3 1.8 0 3.3 1.5 3.3 3.3 0 1.9-1.5 3.3-3.3 3.3z"/>
		<path id="XMLID_804_" class="s0" d="m18.6 7.6c-2 0-3.5 0.9-4.4 1.9v-1.1c0-0.2-0.2-0.4-0.4-0.4h-4.8c-0.3 0-0.4 0.2-0.4 0.4v16.2c0 0.2 0.1 0.4 0.4 0.4h5c0.2 0 0.4-0.2 0.4-0.4v-8c0-2.7 0.7-3.7 2.6-3.7 2 0 2.2 1.6 2.2 3.8v7.9c0 0.2 0.2 0.4 0.4 0.4h5c0.2 0 0.4-0.2 0.4-0.4v-8.9c0-4-0.8-8.1-6.4-8.1z"/>
	</g>
</svg>